<svg width="399" height="399" viewBox="0 0 399 399" fill="none" xmlns="http://www.w3.org/2000/svg">
<path d="M199.008 0C89.1742 0 0 89.1606 0 199.008C0 308.855 89.0434 398.015 199.008 398.015C308.972 398.015 398.015 308.985 398.015 199.008C398.015 89.0297 308.972 0 199.008 0ZM120.294 120.452H233.788L216.529 148.077H103.034L120.294 120.452ZM310.018 258.317L292.758 230.823H242.418L259.677 203.197H275.629L256.409 172.43L202.799 258.317H59.6238L94.1429 203.197H68.7766L86.0361 175.572H196.654L179.394 203.197H126.57L109.31 230.823H187.371L256.278 120.452L342.445 258.448H309.887L310.018 258.317Z" fill="#255AF6"/>
</svg>
